<mxfile host="app.diagrams.net" agent="Mozilla/5.0 (Windows NT 10.0; Win64; x64) AppleWebKit/537.36 (KHTML, like Gecko) Chrome/131.0.0.0 Safari/537.36" version="26.0.6">
  <diagram name="Page-1" id="929967ad-93f9-6ef4-fab6-5d389245f69c">
    <mxGraphModel dx="1434" dy="738" grid="1" gridSize="10" guides="1" tooltips="1" connect="1" arrows="1" fold="1" page="1" pageScale="1.5" pageWidth="1169" pageHeight="826" background="none" math="0" shadow="0">
      <root>
        <mxCell id="0" style=";html=1;" />
        <mxCell id="1" style=";html=1;" parent="0" />
        <mxCell id="1672d66443f91eb5-1" value="&lt;p style=&quot;margin: 0px ; margin-top: 4px ; margin-left: 10px ; text-align: left&quot;&gt;&lt;b&gt;uc&lt;/b&gt; [package] PremiumGalop usecase[HSUV Specification]&lt;/p&gt;" style="html=1;strokeWidth=1;shape=mxgraph.sysml.package;html=1;overflow=fill;whiteSpace=wrap;fillColor=none;gradientColor=none;fontSize=12;align=center;labelX=327.64;" parent="1" vertex="1">
          <mxGeometry x="209" y="80" width="1085" height="650" as="geometry" />
        </mxCell>
        <mxCell id="xCyyZixQw2WoGiizkKXN-24" value="deplacer le penetrométre" style="ellipse;whiteSpace=wrap;html=1;" parent="1" vertex="1">
          <mxGeometry x="530" y="210" width="120" height="80" as="geometry" />
        </mxCell>
        <mxCell id="xCyyZixQw2WoGiizkKXN-25" value="Penetrométre" style="shape=umlActor;verticalLabelPosition=bottom;verticalAlign=top;html=1;" parent="1" vertex="1">
          <mxGeometry x="250" y="210" width="30" height="60" as="geometry" />
        </mxCell>
        <mxCell id="xCyyZixQw2WoGiizkKXN-34" value="mesurer les valeurs de penetrometrie" style="ellipse;whiteSpace=wrap;html=1;" parent="1" vertex="1">
          <mxGeometry x="691.5" y="530" width="120" height="80" as="geometry" />
        </mxCell>
        <mxCell id="xCyyZixQw2WoGiizkKXN-35" value="transmettre (en serie) les valeur de penetrometrie" style="ellipse;whiteSpace=wrap;html=1;" parent="1" vertex="1">
          <mxGeometry x="850" y="520" width="150" height="100" as="geometry" />
        </mxCell>
        <mxCell id="xCyyZixQw2WoGiizkKXN-36" value="Alimenter" style="ellipse;whiteSpace=wrap;html=1;" parent="1" vertex="1">
          <mxGeometry x="450" y="560" width="120" height="80" as="geometry" />
        </mxCell>
        <mxCell id="xCyyZixQw2WoGiizkKXN-37" value="Robot" style="shape=umlActor;verticalLabelPosition=bottom;verticalAlign=top;html=1;outlineConnect=0;" parent="1" vertex="1">
          <mxGeometry x="250" y="400" width="30" height="60" as="geometry" />
        </mxCell>
        <mxCell id="xCyyZixQw2WoGiizkKXN-38" value="Terrain" style="shape=umlActor;verticalLabelPosition=bottom;verticalAlign=top;html=1;outlineConnect=0;" parent="1" vertex="1">
          <mxGeometry x="1240" y="330" width="30" height="60" as="geometry" />
        </mxCell>
        <mxCell id="rB0loOmNJxee1lKb3a_r-1" value="se deplacer en suivant une trajectoire" style="ellipse;whiteSpace=wrap;html=1;" vertex="1" parent="1">
          <mxGeometry x="520" y="310" width="120" height="80" as="geometry" />
        </mxCell>
        <mxCell id="rB0loOmNJxee1lKb3a_r-2" value="recevoir des données" style="ellipse;whiteSpace=wrap;html=1;" vertex="1" parent="1">
          <mxGeometry x="530" y="120" width="120" height="80" as="geometry" />
        </mxCell>
        <mxCell id="rB0loOmNJxee1lKb3a_r-3" value="Se géolocaliser" style="ellipse;whiteSpace=wrap;html=1;" vertex="1" parent="1">
          <mxGeometry x="710" y="280" width="83" height="60" as="geometry" />
        </mxCell>
        <mxCell id="rB0loOmNJxee1lKb3a_r-4" value="S’orienter" style="ellipse;whiteSpace=wrap;html=1;" vertex="1" parent="1">
          <mxGeometry x="700" y="420" width="80" height="50" as="geometry" />
        </mxCell>
        <mxCell id="rB0loOmNJxee1lKb3a_r-5" value="Transmettre des données" style="ellipse;whiteSpace=wrap;html=1;" vertex="1" parent="1">
          <mxGeometry x="530" y="460" width="120" height="80" as="geometry" />
        </mxCell>
        <mxCell id="rB0loOmNJxee1lKb3a_r-6" value="Éviter les obstacles" style="ellipse;whiteSpace=wrap;html=1;" vertex="1" parent="1">
          <mxGeometry x="700" y="350" width="80" height="60" as="geometry" />
        </mxCell>
        <mxCell id="rB0loOmNJxee1lKb3a_r-8" value="" style="endArrow=none;html=1;rounded=0;exitX=0.633;exitY=0.633;exitDx=0;exitDy=0;exitPerimeter=0;entryX=0;entryY=0.5;entryDx=0;entryDy=0;" edge="1" parent="1" source="xCyyZixQw2WoGiizkKXN-25" target="xCyyZixQw2WoGiizkKXN-24">
          <mxGeometry width="50" height="50" relative="1" as="geometry">
            <mxPoint x="710" y="410" as="sourcePoint" />
            <mxPoint x="760" y="360" as="targetPoint" />
          </mxGeometry>
        </mxCell>
        <mxCell id="rB0loOmNJxee1lKb3a_r-9" value="" style="endArrow=none;html=1;rounded=0;entryX=0;entryY=0.5;entryDx=0;entryDy=0;" edge="1" parent="1" source="xCyyZixQw2WoGiizkKXN-37" target="xCyyZixQw2WoGiizkKXN-36">
          <mxGeometry width="50" height="50" relative="1" as="geometry">
            <mxPoint x="710" y="410" as="sourcePoint" />
            <mxPoint x="760" y="360" as="targetPoint" />
          </mxGeometry>
        </mxCell>
        <mxCell id="rB0loOmNJxee1lKb3a_r-10" value="" style="endArrow=none;html=1;rounded=0;exitX=1;exitY=0.3333333333333333;exitDx=0;exitDy=0;exitPerimeter=0;" edge="1" parent="1" source="xCyyZixQw2WoGiizkKXN-37" target="rB0loOmNJxee1lKb3a_r-1">
          <mxGeometry width="50" height="50" relative="1" as="geometry">
            <mxPoint x="710" y="410" as="sourcePoint" />
            <mxPoint x="760" y="360" as="targetPoint" />
          </mxGeometry>
        </mxCell>
        <mxCell id="rB0loOmNJxee1lKb3a_r-12" value="" style="endArrow=none;dashed=1;html=1;rounded=0;entryX=0;entryY=0.5;entryDx=0;entryDy=0;" edge="1" parent="1" source="rB0loOmNJxee1lKb3a_r-1" target="rB0loOmNJxee1lKb3a_r-3">
          <mxGeometry width="50" height="50" relative="1" as="geometry">
            <mxPoint x="710" y="410" as="sourcePoint" />
            <mxPoint x="760" y="360" as="targetPoint" />
          </mxGeometry>
        </mxCell>
        <mxCell id="rB0loOmNJxee1lKb3a_r-13" value="Poser le penetrométre" style="ellipse;whiteSpace=wrap;html=1;" vertex="1" parent="1">
          <mxGeometry x="1040" y="530" width="120" height="80" as="geometry" />
        </mxCell>
        <mxCell id="rB0loOmNJxee1lKb3a_r-14" value="" style="endArrow=none;html=1;rounded=0;exitX=0;exitY=0.5;exitDx=0;exitDy=0;entryX=0.5;entryY=0.5;entryDx=0;entryDy=0;entryPerimeter=0;" edge="1" parent="1" source="rB0loOmNJxee1lKb3a_r-5" target="xCyyZixQw2WoGiizkKXN-37">
          <mxGeometry width="50" height="50" relative="1" as="geometry">
            <mxPoint x="710" y="410" as="sourcePoint" />
            <mxPoint x="760" y="360" as="targetPoint" />
          </mxGeometry>
        </mxCell>
        <mxCell id="rB0loOmNJxee1lKb3a_r-17" value="" style="endArrow=none;dashed=1;html=1;rounded=0;exitX=0.942;exitY=0.725;exitDx=0;exitDy=0;exitPerimeter=0;" edge="1" parent="1" source="rB0loOmNJxee1lKb3a_r-1" target="rB0loOmNJxee1lKb3a_r-6">
          <mxGeometry width="50" height="50" relative="1" as="geometry">
            <mxPoint x="710" y="410" as="sourcePoint" />
            <mxPoint x="760" y="360" as="targetPoint" />
          </mxGeometry>
        </mxCell>
        <mxCell id="rB0loOmNJxee1lKb3a_r-19" value="" style="endArrow=none;dashed=1;html=1;rounded=0;exitX=0.767;exitY=0.963;exitDx=0;exitDy=0;exitPerimeter=0;" edge="1" parent="1" source="rB0loOmNJxee1lKb3a_r-1" target="rB0loOmNJxee1lKb3a_r-4">
          <mxGeometry width="50" height="50" relative="1" as="geometry">
            <mxPoint x="710" y="410" as="sourcePoint" />
            <mxPoint x="760" y="360" as="targetPoint" />
          </mxGeometry>
        </mxCell>
        <mxCell id="rB0loOmNJxee1lKb3a_r-20" value="" style="endArrow=none;dashed=1;html=1;rounded=0;exitX=0.408;exitY=0.988;exitDx=0;exitDy=0;exitPerimeter=0;entryX=0.5;entryY=0;entryDx=0;entryDy=0;" edge="1" parent="1" source="xCyyZixQw2WoGiizkKXN-24" target="rB0loOmNJxee1lKb3a_r-1">
          <mxGeometry width="50" height="50" relative="1" as="geometry">
            <mxPoint x="710" y="410" as="sourcePoint" />
            <mxPoint x="760" y="360" as="targetPoint" />
          </mxGeometry>
        </mxCell>
        <mxCell id="rB0loOmNJxee1lKb3a_r-21" value="" style="endArrow=none;html=1;rounded=0;exitX=1;exitY=0.5;exitDx=0;exitDy=0;entryX=0;entryY=0.3333333333333333;entryDx=0;entryDy=0;entryPerimeter=0;" edge="1" parent="1" source="rB0loOmNJxee1lKb3a_r-13" target="xCyyZixQw2WoGiizkKXN-38">
          <mxGeometry width="50" height="50" relative="1" as="geometry">
            <mxPoint x="710" y="410" as="sourcePoint" />
            <mxPoint x="760" y="360" as="targetPoint" />
          </mxGeometry>
        </mxCell>
        <mxCell id="rB0loOmNJxee1lKb3a_r-23" value="" style="endArrow=none;dashed=1;html=1;rounded=0;exitX=0.033;exitY=0.375;exitDx=0;exitDy=0;exitPerimeter=0;entryX=1;entryY=0.638;entryDx=0;entryDy=0;entryPerimeter=0;" edge="1" parent="1" source="xCyyZixQw2WoGiizkKXN-34" target="rB0loOmNJxee1lKb3a_r-5">
          <mxGeometry width="50" height="50" relative="1" as="geometry">
            <mxPoint x="710" y="410" as="sourcePoint" />
            <mxPoint x="760" y="360" as="targetPoint" />
          </mxGeometry>
        </mxCell>
        <mxCell id="rB0loOmNJxee1lKb3a_r-24" value="" style="endArrow=none;dashed=1;html=1;rounded=0;exitX=0.033;exitY=0.57;exitDx=0;exitDy=0;exitPerimeter=0;" edge="1" parent="1" source="xCyyZixQw2WoGiizkKXN-35" target="xCyyZixQw2WoGiizkKXN-34">
          <mxGeometry width="50" height="50" relative="1" as="geometry">
            <mxPoint x="710" y="410" as="sourcePoint" />
            <mxPoint x="760" y="360" as="targetPoint" />
          </mxGeometry>
        </mxCell>
        <mxCell id="rB0loOmNJxee1lKb3a_r-25" value="" style="endArrow=none;dashed=1;html=1;rounded=0;exitX=0;exitY=0.5;exitDx=0;exitDy=0;" edge="1" parent="1" source="rB0loOmNJxee1lKb3a_r-13" target="xCyyZixQw2WoGiizkKXN-35">
          <mxGeometry width="50" height="50" relative="1" as="geometry">
            <mxPoint x="710" y="410" as="sourcePoint" />
            <mxPoint x="760" y="360" as="targetPoint" />
          </mxGeometry>
        </mxCell>
        <mxCell id="rB0loOmNJxee1lKb3a_r-29" value="" style="endArrow=none;dashed=1;html=1;rounded=0;exitX=0.408;exitY=0.025;exitDx=0;exitDy=0;exitPerimeter=0;entryX=0;entryY=1;entryDx=0;entryDy=0;" edge="1" parent="1" source="xCyyZixQw2WoGiizkKXN-36" target="rB0loOmNJxee1lKb3a_r-1">
          <mxGeometry width="50" height="50" relative="1" as="geometry">
            <mxPoint x="710" y="410" as="sourcePoint" />
            <mxPoint x="760" y="360" as="targetPoint" />
          </mxGeometry>
        </mxCell>
        <mxCell id="rB0loOmNJxee1lKb3a_r-34" value="" style="endArrow=none;html=1;rounded=0;" edge="1" parent="1" source="xCyyZixQw2WoGiizkKXN-37" target="xCyyZixQw2WoGiizkKXN-24">
          <mxGeometry width="50" height="50" relative="1" as="geometry">
            <mxPoint x="710" y="410" as="sourcePoint" />
            <mxPoint x="760" y="360" as="targetPoint" />
          </mxGeometry>
        </mxCell>
        <mxCell id="rB0loOmNJxee1lKb3a_r-35" value="" style="endArrow=none;html=1;rounded=0;exitX=0.5;exitY=0.5;exitDx=0;exitDy=0;exitPerimeter=0;entryX=0;entryY=0.5;entryDx=0;entryDy=0;" edge="1" parent="1" source="xCyyZixQw2WoGiizkKXN-37" target="rB0loOmNJxee1lKb3a_r-2">
          <mxGeometry width="50" height="50" relative="1" as="geometry">
            <mxPoint x="710" y="410" as="sourcePoint" />
            <mxPoint x="760" y="360" as="targetPoint" />
          </mxGeometry>
        </mxCell>
        <mxCell id="rB0loOmNJxee1lKb3a_r-36" value="" style="endArrow=none;dashed=1;html=1;rounded=0;exitX=0.433;exitY=0.95;exitDx=0;exitDy=0;exitPerimeter=0;" edge="1" parent="1" source="rB0loOmNJxee1lKb3a_r-2" target="xCyyZixQw2WoGiizkKXN-24">
          <mxGeometry width="50" height="50" relative="1" as="geometry">
            <mxPoint x="710" y="410" as="sourcePoint" />
            <mxPoint x="760" y="360" as="targetPoint" />
          </mxGeometry>
        </mxCell>
      </root>
    </mxGraphModel>
  </diagram>
</mxfile>
